PathFileType	4	(X/Y/Z)	C:\Users\WrightLab\Desktop\Jo\P4V132.trc
DataRate	CameraRate	NumFrames	NumMarkers	Units	OrigDataRate	OrigDataStartFrame	OrigNumFrames
100.00	100.00	       26	19	mm	100.00	1	       512
Frame#	Time	Headset_Front			Headset_Back			Headset_Left			Headset_Right			Left_Shoulder			Right_Shoulder			Sternum			C7			Left Elbow			Right Elbow			Left Wrist			Right Wrist			Left ASIS			Right ASIS			S2			Left Knee			Right Knee			Left Ankle			Right Ankle			
		X1	Y1	Z1	X2	Y2	Z2	X3	Y3	Z3	X4	Y4	Z4	X5	Y5	Z5	X6	Y6	Z6	X7	Y7	Z7	X8	Y8	Z8	X9	Y9	Z9	X10	Y10	Z10	X11	Y11	Z11	X12	Y12	Z12	X13	Y13	Z13	X14	Y14	Z14	X15	Y15	Z15	X16	Y16	Z16	X17	Y17	Z17	X18	Y18	Z18	X19	Y19	Z19	

1	0.000	-192.93317	1674.11511	1997.19348	-254.47501	1608.03625	2378.70581										-98.65399	1567.09680	2379.84399										35.31158	1214.01501	2420.31299				89.54350	945.06793	2286.59839				-380.33490	1059.89868	2211.97388				-392.49319	584.12579	2331.21680	17.31993	631.11487	2244.59277	-382.13727	109.18102	2525.42896	10.28538	118.37823	2278.61230	
2	0.010	-188.87897	1673.13831	1992.16321	-250.92134	1606.96729	2373.80469										-95.90012	1566.21680	2376.66357										38.27695	1213.13403	2417.56470				93.70988	944.22937	2283.74097				-376.59924	1058.18591	2207.43530				-390.48599	583.60406	2329.65063	21.05769	630.92175	2241.47583	-382.11322	109.48396	2525.31104	18.18183	117.92768	2267.67578	
3	0.020	-185.44228	1671.90881	1987.99536	-247.56230	1606.43164	2369.40625										-92.05320	1565.40747	2372.06665										40.99020	1212.00940	2415.15796				98.44933	943.08514	2282.22241				-372.72076	1057.47620	2202.55298				-387.70764	582.35254	2325.68018	24.76882	629.76410	2238.46826	-382.07272	109.58929	2525.39282	25.74148	117.63363	2256.84839	
4	0.030	-180.94937	1670.68323	1982.63196	-243.72328	1605.37744	2364.74414										-88.84594	1564.36890	2368.39648										44.22757	1211.69495	2412.80127				105.17358	941.19312	2282.16821				-368.69168	1056.10657	2197.47559				-385.26065	582.64374	2322.93237	28.70342	628.76715	2237.20923	-382.02737	109.70158	2525.48779	34.23921	116.29320	2246.92065	
5	0.040	-177.26065	1669.65417	1977.85986	-239.68222	1604.67847	2359.57690										-85.14857	1563.30994	2364.21069										47.91507	1210.67273	2410.11499				109.40353	939.85919	2281.70288				-364.70578	1054.63550	2193.54663				-382.00735	581.30652	2322.95752	32.43680	628.23083	2232.95801	-382.06717	110.34737	2525.45898	41.22485	116.57639	2237.98779	
6	0.050	-173.16756	1668.10828	1972.45569	-235.83412	1603.71069	2355.00635										-81.74957	1562.34143	2360.20508	-212.26521	1840.07690	2329.64941							51.34604	1209.70667	2406.82837				114.07573	939.33075	2278.64771				-360.27298	1053.48401	2188.68555				-378.88306	580.02002	2318.66040	36.76069	626.87323	2227.85352	-381.78333	110.28131	2525.17334	48.18722	115.94891	2228.92676	
7	0.060	-168.45615	1666.65039	1966.77454	-232.18832	1602.75403	2350.42334										-77.73103	1560.91821	2355.80640	-207.61206	1839.41968	2323.64600							54.65968	1208.90442	2403.95044				118.83355	937.84186	2277.02319	-268.65649	1098.47351	2401.31665	-355.70743	1052.06494	2182.84106				-375.79471	579.66962	2315.86572	41.69931	626.56250	2226.77271	-381.77835	110.90881	2525.27686	54.39345	115.22761	2221.22827	
8	0.070	-163.80322	1665.60205	1961.97461	-227.88725	1602.18298	2344.53003										-73.66970	1560.21863	2350.84814	-203.13744	1838.41467	2318.22144							58.72990	1207.52490	2400.04468				124.16182	936.64374	2275.94385	-265.33041	1098.61902	2396.64624	-351.26651	1050.73059	2178.61060				-372.71051	578.86505	2311.57153	46.44587	625.19244	2221.80713	-381.66156	111.31400	2525.45020	60.26373	114.67306	2213.90308	
9	0.080	-159.25391	1664.43103	1956.64001	-223.65674	1600.82312	2339.25195										-69.69036	1558.82971	2346.78394	-198.71523	1837.53821	2312.53931							62.15989	1206.96423	2397.99829				129.45804	936.01624	2273.24121	-261.25522	1097.15112	2390.90356	-346.31979	1049.21252	2173.45288				-369.07654	578.13763	2306.69922	50.86682	624.33478	2217.33984	-381.33374	111.93879	2524.97241	66.16975	113.58621	2206.11768	
10	0.090	-154.60641	1663.00513	1950.99451	-219.11719	1599.54504	2333.07104										-65.63754	1558.07458	2342.54785	-193.76996	1836.57544	2306.47217							66.52266	1206.11035	2394.92139				134.27629	934.98291	2269.63916	-255.97704	1096.46143	2386.05859	-341.54120	1048.11133	2168.05811				-365.51938	577.03265	2303.57593	56.10655	623.70245	2214.70752	-381.02795	112.40468	2524.85400	70.34586	113.31334	2200.96021	
11	0.100	-149.95049	1662.04102	1946.29541	-214.63496	1598.44727	2328.16699										-61.34098	1557.08105	2338.02466	-188.99144	1835.45129	2300.93896							70.71770	1205.26282	2390.78760				140.11298	934.10822	2267.90332	-251.32584	1095.64929	2381.53394	-336.53256	1046.40540	2163.27856				-362.01651	576.82227	2298.62061	60.87154	623.42291	2208.58398	-380.68643	112.67790	2524.62842	74.24332	111.66127	2195.61890	
12	0.110	-144.85730	1660.76099	1940.88196	-209.87193	1597.70618	2323.18213										-56.48584	1555.70935	2332.81763	-183.91791	1834.66614	2295.14966							74.90987	1204.04529	2387.40186				145.83156	933.26416	2265.08276	-246.86681	1094.63708	2376.33887	-331.18179	1045.21301	2158.20190				-357.62732	575.74146	2293.21191	65.94180	622.53699	2202.21484	-380.56619	113.62501	2524.25659	77.00768	111.57349	2192.58691	
13	0.120	-139.83458	1659.76489	1935.06396	-204.62386	1596.74365	2317.36768										-51.84299	1554.66809	2327.99316	-178.81482	1833.51318	2289.50439							79.84758	1203.48340	2384.16553				152.06064	932.24799	2263.62793	-241.47461	1093.55127	2370.79468	-325.95636	1043.82153	2152.53345				-353.73679	575.57288	2291.37085	71.76200	621.27527	2196.88696	-380.22781	113.70743	2523.74121	79.74780	109.85513	2189.27905	
14	0.130	-134.57164	1658.41028	1929.62280	-200.29222	1595.38379	2312.03027							-316.02655	1565.01416	2203.77563	-47.17058	1553.92957	2322.94727	-173.55775	1832.50952	2283.08423							84.19671	1203.00146	2380.22290				157.92256	931.47284	2260.72095	-235.81342	1092.88818	2366.04736	-320.27469	1042.45544	2148.19141				-349.60526	574.36298	2286.38843	77.21463	621.41150	2191.88770	-380.23172	115.45465	2523.12207	81.79140	109.12051	2186.26343	
15	0.140	-129.47011	1657.51294	1924.69897	-194.92210	1593.95288	2305.78857							-310.84482	1564.41626	2198.49390	-42.21462	1552.52344	2318.15771	-168.29424	1831.52600	2277.44824							88.70943	1202.47180	2376.80029				163.87686	930.89001	2257.93237	-230.36340	1091.88440	2360.44067	-314.56989	1041.07239	2141.80566				-344.72714	572.91010	2280.70386	83.02036	620.59509	2184.92236	-379.86203	117.42033	2522.63354	82.33183	108.73577	2185.94873	
16	0.150	-123.99458	1655.59204	1918.93115	-189.61934	1593.09814	2300.72949							-305.10898	1563.32397	2192.16455	-37.18046	1551.95801	2312.83984	-162.77106	1830.21948	2271.42920							94.11573	1201.58777	2373.35181							-223.47612	1090.49048	2354.85938	-308.38058	1039.84058	2137.11743				-340.01538	572.42194	2274.63745	88.64559	619.99951	2179.27734	-379.52963	118.65582	2521.70435	82.89818	107.87108	2185.83911	
17	0.160	-118.57253	1654.42126	1913.41846	-184.08469	1591.97742	2294.81396							-299.06476	1561.45947	2186.65137	-32.02340	1550.75073	2308.09424	-157.42992	1829.27588	2265.40503							99.20683	1200.61035	2368.79614				176.79205	928.92798	2252.61475	-217.41223	1090.00891	2349.02441	-301.98129	1038.48828	2130.13354				-335.20892	571.88770	2268.21240	95.14977	618.55035	2175.65112	-378.97095	121.09256	2520.86597	83.71564	107.38181	2185.16968	
18	0.170	-113.21255	1653.33875	1908.30151	-178.91058	1591.05981	2289.10181							-293.80630	1560.83252	2180.77661	-26.82893	1550.18640	2302.83032	-151.91531	1828.28064	2259.45972							104.86824	1200.61462	2365.05762				183.36794	928.25616	2249.22510	-210.35400	1088.99329	2343.58350	-295.39362	1037.61560	2125.20483				-330.16470	571.11108	2261.95117	100.88674	616.52557	2170.01563	-378.87726	123.80318	2519.38989	85.24591	106.35689	2183.90356	
19	0.180	-107.77322	1652.82605	1902.42627	-173.02704	1590.27490	2284.09351							-287.76566	1560.65784	2176.52124	-20.72000	1549.20886	2296.84595	-146.30478	1827.72327	2253.25000							110.73251	1199.64136	2360.64404				190.21468	927.92151	2245.64526	-203.83575	1088.38635	2337.31714	-288.39838	1037.10974	2118.02734				-325.55893	571.24487	2255.42358	106.77702	614.33881	2164.81226	-378.33789	127.41734	2518.07617	86.60977	105.85930	2182.97485	
20	0.190	-102.40918	1652.50293	1897.12524	-167.20786	1589.49219	2278.04639							-281.86700	1558.95557	2169.73657	-15.12725	1549.03455	2292.01367	-140.69463	1827.42468	2246.80640							116.68044	1199.42444	2355.80029				196.65230	927.33228	2241.60547	-196.70587	1087.23145	2331.86890	-281.28802	1036.50635	2111.88208				-320.33218	570.81775	2248.44702	110.85722	612.38312	2159.01025	-377.79123	130.94826	2516.05151	87.83687	105.38335	2181.99902	
21	0.200	-96.71758	1651.77356	1891.63599	-161.47621	1589.58545	2273.15991							-275.73245	1558.98669	2165.20776	-9.37161	1548.53943	2286.95630	-134.77654	1827.47546	2240.06348							123.17272	1199.10657	2351.66333				202.87419	927.11609	2237.75195	-190.54370	1086.66516	2324.98804	-274.05289	1036.47205	2105.72803				-314.84137	570.78790	2240.39038	114.74493	611.73010	2154.64624	-376.76559	134.59312	2513.85767	88.70728	105.20000	2180.62207	
22	0.210	-91.21883	1652.16956	1886.13965	-155.25626	1590.11816	2267.28076							-270.26675	1559.04236	2159.56323	-3.24498	1548.33984	2281.45288	-129.17227	1827.89795	2233.82300							129.01819	1199.23193	2346.48657				210.26982	926.90356	2235.19287	-183.61812	1087.03833	2319.28833	-266.66446	1036.50989	2098.29688				-309.16129	570.63293	2231.12671	117.68008	611.10437	2150.30225	-377.26184	142.15988	2513.53735	89.31351	105.38332	2179.82690	
23	0.220	-85.58259	1652.67041	1880.88818	-148.99496	1590.07275	2261.75220							-263.68921	1559.36633	2154.49097	2.94147	1548.77393	2275.72144	-123.26207	1828.43860	2226.88013							135.35672	1200.61841	2342.17676				216.48825	926.87787	2228.91748	-177.38560	1086.95789	2311.74878	-259.01175	1036.97766	2091.24219				-302.60736	569.86377	2221.09155	121.07196	610.95978	2145.89575	-373.96295	144.79121	2508.62573	89.46187	105.83636	2179.82642	
24	0.230	-79.83565	1653.21069	1875.25098	-142.77106	1591.24255	2256.26733							-257.17328	1559.28479	2147.75879	8.81746	1549.59717	2270.40308	-117.07974	1829.43909	2219.21436							141.95926	1200.50598	2335.38062				223.17207	926.91400	2224.85571	-171.24185	1087.69495	2306.19995	-251.59901	1037.78357	2084.06616				-296.65594	570.33673	2210.57178	126.27760	610.83734	2142.72827	-372.28049	152.12206	2505.86133	90.40245	105.50462	2178.78516	
25	0.240	-74.02641	1653.95654	1869.75134	-136.55293	1592.11536	2250.82202										14.84977	1550.93335	2265.78882	-111.17474	1830.60645	2212.96997							148.46852	1202.02478	2331.04492				230.36064	928.06042	2222.42676	-165.41066	1088.61267	2300.22729	-244.03238	1038.89355	2077.32202				-290.33099	570.20618	2196.90723	131.81505	610.85431	2137.20581	-369.84769	159.09554	2502.00024	91.23640	105.04409	2177.95361	
26	0.250	-68.56848	1654.99109	1865.08875	-130.12643	1592.98071	2245.10449							-245.07666	1561.03906	2138.22363	21.55869	1551.71631	2259.37720	-104.97052	1831.72083	2205.91113							154.71896	1203.94775	2325.25317				237.59669	929.57916	2219.33252	-159.55438	1089.05042	2292.77319	-236.53859	1039.74622	2071.16992				-282.44403	568.59381	2182.72754	138.19759	610.56427	2135.85474	-366.24280	166.45236	2496.51367	91.53892	104.92444	2177.90381	
